<?xml version="1.0" encoding="UTF-8" standalone="no"?>
<!-- Created with Inkscape (http://www.inkscape.org/) -->

<svg
   version="1.1"
   id="svg2"
   width="4666.6665"
   height="2666.6667"
   viewBox="0 0 4666.6665 2666.6667"
   sodipodi:docname="4585.eps"
   xmlns:inkscape="http://www.inkscape.org/namespaces/inkscape"
   xmlns:sodipodi="http://sodipodi.sourceforge.net/DTD/sodipodi-0.dtd"
   xmlns="http://www.w3.org/2000/svg"
   xmlns:svg="http://www.w3.org/2000/svg">
  <defs
     id="defs6" />
  <sodipodi:namedview
     id="namedview4"
     pagecolor="#ffffff"
     bordercolor="#000000"
     borderopacity="0.25"
     inkscape:showpageshadow="2"
     inkscape:pageopacity="0.0"
     inkscape:pagecheckerboard="0"
     inkscape:deskcolor="#d1d1d1" />
  <g
     id="g8"
     inkscape:groupmode="layer"
     inkscape:label="ink_ext_XXXXXX"
     transform="matrix(1.3333333,0,0,-1.3333333,0,2666.6667)">
    <g
       id="g10"
       transform="scale(0.1)">
      <path
         d="M 0,0 H 35000 V 20000 H 0 Z"
         style="fill:#ffffff;fill-opacity:1;fill-rule:nonzero;stroke:none"
         id="path12" />
      <path
         d="m 4527.29,3355.1 c 0,0 -4134.126,5513.7 -2814.39,5450.7 1319.73,-63 2981.54,-3298.2 2981.54,-3298.2 0,0 -2561.63,5274.7 -2081.73,5634.7 479.91,359.9 3053.09,-5304.2 3053.09,-5304.2 0,0 7801.6,2830.2 8832.3,4402.9 1491.9,2276.3 1535.2,5211.3 2619.4,5486.7 1084.2,275.4 1727.9,2010.7 1892,1378 164.1,-632.8 -664.6,-1982.9 -244.1,-2639.4 420.4,-656.6 -790.1,-2663 -1334.3,-3451.3 -781.2,-1131.9 -807,-4015.3 -494.5,-4083.4 312.6,-68.1 1603.6,4295.2 1888.2,5662.7 284.6,1367.5 1795.9,1221.8 2420,2224.4 624.1,1002.7 975.5,2740.7 1249.7,1991.7 274.2,-749.1 -45.4,-2075.2 234.4,-2791.9 279.7,-716.6 -1382.7,-5879 -1181.4,-6507.2 201.4,-628.1 889.7,2367.9 2190.1,2558.6 1300.3,190.8 -626.9,-5355.9 -626.9,-5355.9 0,0 3328.4,6361 4708.1,6489.7 1379.8,128.7 1836.1,1448.4 2417.8,1568.4 581.6,120 738.1,-705 0,-1672.2 -738.1,-967.3 -326.8,-2188.3 -1164.7,-3736.4 -838,-1548.2 -964.3,-4220 -964.3,-4220 0,0 3252.9,3048.6 3966,2764.3 713.1,-284.4 -1568.4,-2470.8 -1568.4,-2470.8 0,0 2290.1,1252.6 2825.7,939.6 535.6,-312.9 -1847,-1834.1 -1847,-1834.1 H 5222.61 l -695.32,812.6"
         style="fill:#9cd499;fill-opacity:1;fill-rule:nonzero;stroke:none"
         id="path14" />
      <path
         d="m 14879.2,8632.8 c -894.4,2116.4 -982.5,2925.1 -307.5,4966.1 675,2040.9 30,5414.8 655.2,4522.6 625.3,-892.2 1121.5,-3372.5 116.6,-4854.2 -1004.9,-1481.7 -1056.4,-2056.2 -1023.1,-2560.6 33.2,-504.3 624.8,-1945.4 624.8,-1945.4 l -66,-128.5"
         style="fill:#9cd499;fill-opacity:1;fill-rule:nonzero;stroke:none"
         id="path16" />
      <path
         d="m 14360.5,10009.5 c -2.6,8.3 -5,16.6 -7.5,24.9 -16.8,186.3 -96.7,1145.6 -1.9,1552.3 105.4,451.6 807.7,1353.3 850.4,2298.2 42.8,944.8 271.7,1720.8 397.3,2339.6 165.9,817.1 -235.9,1764.5 -581.8,2024.1 5.7,6 11.7,10.4 18,13.7 l 103.4,-34.7 c 26.3,-24.1 55.6,-59.1 88.5,-106.1 625.3,-892.2 1121.5,-3372.5 116.6,-4854.2 -1004.9,-1481.7 -1056.4,-2056.2 -1023.1,-2560.6 8.9,-136 58.6,-340.3 126.2,-566 l -86.1,-131.2"
         style="fill:#74b570;fill-opacity:1;fill-rule:nonzero;stroke:none"
         id="path18" />
      <path
         d="m 28186.3,4870.9 c -5,50.8 913.8,2657.6 2099.2,2555.8 1185.4,-101.7 1392.8,-429.9 2208.8,-481.5 582.2,-36.8 1052.8,44 1052.8,44 0,0 -469.5,-691.9 -1564.7,-772.8 -774.3,-57.1 -1637.7,518.3 -2210.4,548.1 -572.6,29.8 -1122.5,-1087.6 -1122.5,-1087.6 l -233.1,-593.1 -230.1,-212.9"
         style="fill:#9cd499;fill-opacity:1;fill-rule:nonzero;stroke:none"
         id="path20" />
      <path
         d="m 28446.2,5626.5 c -4.9,0 -9.8,1.2 -14.4,3.7 -14.5,8 -19.8,26.3 -11.8,40.8 535.9,971.3 1018.7,1499.6 1519.4,1662.7 447.7,145.8 839.3,-18.2 1253.9,-191.9 101.5,-42.5 206.5,-86.5 311.4,-125.1 913.1,-335.5 1419.7,-209.8 1424.6,-208.5 16.1,4.2 32.5,-5.4 36.7,-21.4 4.1,-16.1 -5.5,-32.4 -21.5,-36.6 -21.2,-5.6 -529.9,-131.7 -1460.5,210.2 -106.2,39.1 -211.8,83.3 -313.9,126.1 -404,169.2 -785.7,329.1 -1212.2,190.2 -485.3,-158.1 -957.3,-677.5 -1485.4,-1634.7 -5.4,-9.9 -15.7,-15.5 -26.3,-15.5"
         style="fill:#74b570;fill-opacity:1;fill-rule:nonzero;stroke:none"
         id="path22" />
      <path
         d="m 28178.7,4837 c 502.5,2948.2 1548.1,4387.4 3245.9,5335.3 1697.7,947.9 1833.9,1265 1833.9,1265 0,0 -764.2,-2410.9 -1772.2,-3081.2 -1008,-670.2 -2345.6,-1036.2 -2616.6,-1439.3 -271,-403.2 -535.4,-1899.2 -535.4,-1899.2 l -169.6,-243.7 14,63.1"
         style="fill:#9cd499;fill-opacity:1;fill-rule:nonzero;stroke:none"
         id="path24" />
      <path
         d="m 28201.3,4983.9 c -1.3,0 -2.6,0.1 -3.8,0.2 -16.5,2.1 -28.1,17.1 -26,33.5 0.6,4.9 62.9,488.7 262.2,1121.7 184.2,584.7 526.3,1420.5 1110.8,2082 577.4,653.5 1123.5,985.5 1651.7,1306.6 492.1,299.1 956.8,581.6 1376.2,1099.1 10.4,12.8 29.3,14.8 42.2,4.4 12.9,-10.4 14.9,-29.3 4.4,-42.2 -425.9,-525.6 -895,-810.7 -1391.6,-1112.6 -524.4,-318.7 -1066.6,-648.3 -1638,-1295 -577.1,-653.3 -915.7,-1480.3 -1098,-2059.1 -198,-628.1 -259.8,-1107.6 -260.4,-1112.4 -1.9,-15.1 -14.8,-26.2 -29.7,-26.2"
         style="fill:#74b570;fill-opacity:1;fill-rule:nonzero;stroke:none"
         id="path26" />
      <path
         d="m 30605.3,9091.3 c -11.2,0 -22,6.4 -27.2,17.2 -7,15 -0.6,32.9 14.4,40 6.6,3 661.9,306.4 1473.1,283.9 16.6,-0.4 29.6,-14.2 29.2,-30.8 -0.5,-16.5 -14.3,-29.4 -30.9,-29.1 -796.6,22.4 -1439.4,-275.3 -1445.8,-278.3 -4.2,-2 -8.5,-2.9 -12.8,-2.9"
         style="fill:#74b570;fill-opacity:1;fill-rule:nonzero;stroke:none"
         id="path28" />
      <path
         d="m 29434,8018.9 c -7.3,0 -14.7,2.7 -20.5,8.1 -12.1,11.3 -12.7,30.3 -1.4,42.4 563.6,601.7 1083.1,669.9 2204.2,766.9 16.4,1.3 31,-10.8 32.5,-27.3 1.4,-16.5 -10.8,-31 -27.3,-32.5 -1105.3,-95.6 -1617,-162.5 -2165.6,-748.1 -5.9,-6.3 -13.9,-9.5 -21.9,-9.5"
         style="fill:#74b570;fill-opacity:1;fill-rule:nonzero;stroke:none"
         id="path30" />
      <path
         d="m 3686.77,2924.6 c 0,0 -2670.26,1806.4 -1710.17,2089.3 960.1,282.9 2802.81,-1277.2 2802.81,-1277.2 H 13638 c 0,0 778.7,4454 1384.4,4312.2 605.6,-141.8 -264.5,-4282.2 -264.5,-4282.2 0,0 821.8,1973.3 1205.9,1721.7 384.2,-251.6 390.7,-2133.3 390.7,-2133.3 0,0 479.5,2384.9 1076.6,2133.3 597.1,-251.6 3737.4,-2139.4 3737.4,-2139.4 0,0 1800.9,4486.7 2090.6,4162.3 289.7,-324.3 -520.4,-4074.3 -520.4,-4074.3 0,0 2913.9,4658.9 3295,4374 381.1,-285 -1142,-4285.4 -1142,-4285.4 0,0 1325.3,991.1 1716.4,571.1 391,-420.1 402.8,-980.3 402.8,-980.3 0,0 669.1,3507.3 1153.8,3033.9 484.8,-473.4 514.6,-3225.7 514.6,-3225.7 0,0 1260.1,1562.1 1530.1,1382.1 270.1,-180 0,-1764.2 0,-1764.2 L 3686.77,2924.6"
         style="fill:#74b570;fill-opacity:1;fill-rule:nonzero;stroke:none"
         id="path32" />
      <path
         d="m 32440.2,2542.5 c -2397.3,1108.2 -8187.2,883.8 -11058.9,812.6 -2871.8,-71.2 -5712.9,-537.3 -8460.9,-60.3 -2748.1,477 -10307.69,69.7 -10247.7,-480.5 59.99,-550.2 7846.4,-1388.9 10761.8,-969.5 2915.5,419.3 7616.5,779.2 11054.8,359.3 3438.4,-419.9 9885.9,-556 7950.9,338.4"
         style="fill:#9bd6e8;fill-opacity:1;fill-rule:nonzero;stroke:none"
         id="path34" />
      <path
         d="m 22352.5,2744.9 h -5199.4 v 7046.7 l 1390.9,666 h 2329.1 l 1479.4,-666 V 2744.9"
         style="fill:#f37168;fill-opacity:1;fill-rule:nonzero;stroke:none"
         id="path36" />
      <path
         d="m 18544,10457.6 -1390.9,-666 h 5199.4 l -1479.4,666 H 18544"
         style="fill:#d54a41;fill-opacity:1;fill-rule:nonzero;stroke:none"
         id="path38" />
      <path
         d="m 21168.5,10039.5 h -2862.2 l 514.3,268.6 h 1833.5 l 514.4,-268.6"
         style="fill:#f37168;fill-opacity:1;fill-rule:nonzero;stroke:none"
         id="path40" />
      <path
         d="m 20729.9,10143.8 h -1964.5 c -16.6,0 -30,13.4 -30,30 0,16.6 13.4,30 30,30 h 1964.5 c 16.5,0 30,-13.4 30,-30 0,-16.6 -13.5,-30 -30,-30"
         style="fill:#993341;fill-opacity:1;fill-rule:nonzero;stroke:none"
         id="path42" />
      <path
         d="m 20969.9,7628.5 h -2485.7 c -109.2,0 -198.5,89.3 -198.5,198.5 v 667.9 c 0,109.2 89.3,198.6 198.5,198.6 h 2485.7 c 109.2,0 198.6,-89.4 198.6,-198.6 V 7827 c 0,-109.2 -89.4,-198.5 -198.6,-198.5"
         style="fill:#d54a41;fill-opacity:1;fill-rule:nonzero;stroke:none"
         id="path44" />
      <path
         d="m 26010.5,13933.2 c 72,271.2 269.2,925.6 -44.5,1069 -313.7,143.4 -470.6,354 -784.3,246.5 -313.7,-107.6 -251,-354.1 -363,-488.5 -112.1,-134.5 76.2,-573.7 255.4,-730.6 179.3,-156.8 936.4,-96.4 936.4,-96.4"
         style="fill:#58556e;fill-opacity:1;fill-rule:nonzero;stroke:none"
         id="path46" />
      <path
         d="m 22002.1,11850.2 c 0,0 -432.7,139.7 -580.9,215.4 -148.3,75.7 -1059.7,-396.5 -832.5,-457.4 227.1,-60.9 684.8,121.1 684.8,121.1 l -220.3,-105.6 c 0,0 197.6,-67.5 276.2,-49.6 78.6,17.8 294.6,69.5 294.6,69.5 l 586,-233.1 c 0,0 -24.4,345.6 -35,351.4 -10.7,5.9 -172.9,88.3 -172.9,88.3"
         style="fill:#f09959;fill-opacity:1;fill-rule:nonzero;stroke:none"
         id="path48" />
      <path
         d="m 22115.4,11894.6 -264.1,11.5 -113.4,-512.2 443.9,-83.6 -66.4,584.3"
         style="fill:#f2e5de;fill-opacity:1;fill-rule:nonzero;stroke:none"
         id="path50" />
      <path
         d="m 26311.9,12891.4 c 414.7,-582.7 162.1,-1028.2 -355.1,-1406.1 -517.2,-377.9 -1734.7,-495.8 -2249.5,-518.5 -514.8,-22.8 -1801.9,372.3 -1801.9,372.3 l 79.4,567 c 0,0 1218.8,-116.4 1690.7,-35.4 471.9,80.9 2145.1,1020.7 2145.1,1020.7 h 491.3"
         style="fill:#58556e;fill-opacity:1;fill-rule:nonzero;stroke:none"
         id="path52" />
      <path
         d="m 25344.9,12631.7 c -147.7,-79 -318.3,-168.8 -494.3,-258.3 -170.9,-444.7 -218.9,-900.7 -1048,-1203.2 -192.4,-70.3 -375,-119.2 -543.5,-152.5 173.2,-35.3 330.8,-56.1 448.2,-50.9 373.1,16.5 1211.9,-31.3 1789.2,148 -17.4,443.7 -136.9,1145.4 -151.6,1516.9"
         style="fill:#3a384d;fill-opacity:1;fill-rule:nonzero;stroke:none"
         id="path54" />
      <path
         d="m 25830.1,14487.9 314.7,-1021.9 -648.3,-797.6 190.6,685 -190.6,700.8 333.6,433.7"
         style="fill:#f09959;fill-opacity:1;fill-rule:nonzero;stroke:none"
         id="path56" />
      <path
         d="m 25830.1,14487.9 -333.6,-433.7 189.5,-696.8 c 117.9,203.6 216,448.5 270.8,719.2 l -126.7,411.3"
         style="fill:#e38540;fill-opacity:1;fill-rule:nonzero;stroke:none"
         id="path58" />
      <path
         d="m 25840.9,14075.3 c -108.4,-337.4 -399.8,-545.5 -650.9,-464.8 -251,80.6 -366.7,419.5 -258.3,756.9 108.4,337.4 399.8,545.5 650.9,464.9 251.1,-80.7 366.7,-419.6 258.3,-757"
         style="fill:#f09959;fill-opacity:1;fill-rule:nonzero;stroke:none"
         id="path60" />
      <path
         d="m 25531.4,13051.5 c 0,0 -191.7,-114.4 -191.2,-203.4 0.5,-88.9 0,-139.8 0,-139.8 0,0 -164.7,-252.2 -291.8,-577.4 -127.1,-325.1 -120.5,-490.4 -120.5,-490.4 l 805.9,1226.5 -202.4,184.5"
         style="fill:#f37168;fill-opacity:1;fill-rule:nonzero;stroke:none"
         id="path62" />
      <path
         d="m 26665.8,3381.5 c -6.4,-254.3 -286.8,-433.8 -419.8,-501.3 -417.2,-211.8 -489.4,-344.2 -31.8,-337.4 346.2,5.1 584.7,140.3 959.7,165.7 237.8,16.2 66.5,280.4 79.2,432.9 12.7,152.6 -95.3,367.2 -95.3,367.2 l -492,-127.1"
         style="fill:#3a384d;fill-opacity:1;fill-rule:nonzero;stroke:none"
         id="path64" />
      <path
         d="m 24663.7,3508.6 c 0,0 -84.3,-116 -287.7,-291.4 -203.3,-175.5 -920.3,-181.4 -538.6,-361.4 231.8,-109.4 658.7,-30.1 913.9,-66.8 255.3,-36.8 477.7,-1.2 496.8,66.8 19.1,68 -52.3,532.9 -52.3,532.9 l -532.1,119.9"
         style="fill:#3a384d;fill-opacity:1;fill-rule:nonzero;stroke:none"
         id="path66" />
      <path
         d="m 25037.9,10260.7 c 100.1,-1203.9 -238.4,-3921 -240.7,-4535.9 -2.4,-614.9 -349.8,-2403.3 -349.8,-2403.3 0,0 670.8,-272.2 828.1,-285.6 157.3,-13.3 490.6,1559.9 557.8,2375 67.3,815.1 444.9,2489.8 444.9,2489.8 l -145.6,2481.7 -1094.7,-121.7"
         style="fill:#58556e;fill-opacity:1;fill-rule:nonzero;stroke:none"
         id="path68" />
      <path
         d="m 25743.2,4714 c 41.6,254.7 73.7,498.3 90.1,696.9 67.3,815.1 444.9,2489.8 444.9,2489.8 l -48.6,827.9 -1205.7,17.2 c -25,-443.1 -61.5,-907.1 -97.9,-1338.5 463.1,-1009.7 704.8,-2073.5 817.2,-2693.3"
         style="fill:#3a384d;fill-opacity:1;fill-rule:nonzero;stroke:none"
         id="path70" />
      <path
         d="m 25080.8,9857.6 c 466.4,-2526.7 809.7,-3531.5 1124.3,-4618.3 314.6,-1086.8 243,-2203.4 243,-2203.4 l 872.3,-111.3 c 0,0 341,1977.9 5.6,2971.8 -205.8,609.8 -69.6,1435.9 -145.7,2341.8 -85.8,1021.9 -160.2,2066.6 -160.2,2066.6 l -1939.3,-447.2"
         style="fill:#58556e;fill-opacity:1;fill-rule:nonzero;stroke:none"
         id="path72" />
      <path
         d="m 26894.3,8975.5 -1507.5,-651.1 c 6.8,-31.2 -6.7,-184.8 0,-215.4 738.4,-61.5 1205.6,8.4 1810.4,-137.8 -13.9,177.2 -42.1,595 -53.8,774.6 l -249.1,229.7"
         style="fill:#3a384d;fill-opacity:1;fill-rule:nonzero;stroke:none"
         id="path74" />
      <path
         d="m 26254.7,13372.9 c 629.2,-595.2 858.1,-1224.4 836.9,-1570.1 -42.9,-699.9 90.3,-3391.2 90.3,-3391.2 0,0 -369.7,-84.1 -989.1,-197.4 -619.3,-113.2 -1216.9,52.4 -1216.9,52.4 0,0 -104.8,1922.7 -99.9,3130.2 2.9,736.1 1378.7,1976.1 1378.7,1976.1"
         style="fill:#58556e;fill-opacity:1;fill-rule:nonzero;stroke:none"
         id="path76" />
      <path
         d="m 26870.8,8345.6 c 16.3,318.2 130.2,2558.4 112.5,2593.9 -19.1,38.1 -743.7,1728.9 -743.7,1728.9 -387.7,-527.7 -412.2,-1627.2 -406.3,-2218.3 5.3,-532.6 165.7,-1978.4 197.4,-2259.5 53.6,6 107.8,13.7 162.1,23.6 273,49.9 504.4,95.8 678,131.4"
         style="fill:#3a384d;fill-opacity:1;fill-rule:nonzero;stroke:none"
         id="path78" />
      <path
         d="m 26205.1,13534.6 -120.7,235.1 -587.9,-476.7 -35,-652.9 743.6,894.5"
         style="fill:#f2e5de;fill-opacity:1;fill-rule:nonzero;stroke:none"
         id="path80" />
      <path
         d="m 26103.4,13007 c 0,0 239.9,110 460.7,33.5 -90.7,111.1 -173.9,221.4 -309.4,349.6 0,0 -1375.8,-1240 -1378.7,-1976.1 -0.8,-179.9 3.6,-362.2 11.6,-542.3 4.6,368.8 -48.7,635.3 313.3,1116.7 320.9,426.7 1004.2,777.1 1004.2,777.1 l -101.7,241.5"
         style="fill:#3a384d;fill-opacity:1;fill-rule:nonzero;stroke:none"
         id="path82" />
      <path
         d="m 26211.5,13593.1 173,-330.5 -427.7,-306.4 114.9,-190.7 c 0,0 -515.6,-327.9 -731.5,-495.8 -361.7,-281.3 -488.9,-947 -488.9,-947 0,0 50.9,665.7 488.9,1217.8 400.6,504.9 871.3,1052.6 871.3,1052.6"
         style="fill:#58556e;fill-opacity:1;fill-rule:nonzero;stroke:none"
         id="path84" />
      <path
         d="m 25619.6,8377.5 1834,-222.5 -124.2,-1214 -1744.3,178.8 34.5,1257.7"
         style="fill:#bdccd4;fill-opacity:1;fill-rule:nonzero;stroke:none"
         id="path86" />
      <path
         d="m 26669.2,9162.9 -184.3,-676 -279.7,-188.8 226.5,-36.5 c 0,0 -41,-402 -117.9,-584.6 -76.8,-182.7 5.8,-243.6 317.3,-30.5 311.4,213.1 397.8,316.7 376.8,566.4 -20.9,249.6 -78.1,280 -46.3,487.1 31.8,207.1 -298.7,505.5 -298.7,505.5 l 6.3,-42.6"
         style="fill:#f09959;fill-opacity:1;fill-rule:nonzero;stroke:none"
         id="path88" />
      <path
         d="m 26472.4,8822 -63.5,-347.1 602.8,-97.4 99.8,444.5 h -639.1"
         style="fill:#f2e5de;fill-opacity:1;fill-rule:nonzero;stroke:none"
         id="path90" />
      <path
         d="m 26638.5,12891.4 c 227.2,-93.4 516.4,-921.8 939.3,-2397.5 102.2,-356.7 -466.3,-1970.4 -466.3,-1970.4 0,0 -726.2,46.3 -735.2,162.8 -5.2,66.8 319.4,1347.5 276.5,1470.8 -42.9,123.3 -293.4,499.5 -508,1339.4 -214.7,839.8 79.7,1565 493.7,1394.9"
         style="fill:#58556e;fill-opacity:1;fill-rule:nonzero;stroke:none"
         id="path92" />
      <path
         d="m 24949.7,14876.7 c -225.1,-564.7 263.8,-506.4 469.5,-331.7 205.7,174.8 232.3,23.8 228.2,-183.7 -3.9,-194.8 73.9,-52.4 55.9,-272 -17.9,-219.6 -32,-230 40.1,-153.8 72.1,76.2 94.6,354.1 94.6,354.1 0,0 -16.9,-359.7 85.9,-384.3 102.8,-24.5 86.6,27.9 86.6,27.9 l 23.2,602.9 -453.1,506.4 c 0,0 -581.4,-4.5 -582,-22.4 -0.7,-17.9 -48.9,-143.4 -48.9,-143.4"
         style="fill:#58556e;fill-opacity:1;fill-rule:nonzero;stroke:none"
         id="path94" />
      <path
         d="m 25838,14289.6 c 69.7,152.4 223.5,80.6 182.4,-98.7 -41,-179.2 -209.5,-195.4 -209.5,-195.4 l 27.1,294.1"
         style="fill:#f09959;fill-opacity:1;fill-rule:nonzero;stroke:none"
         id="path96" />
      <path
         d="m 21547.5,11246.7 c -0.8,193.5 -672.9,971.4 -736,1003.7 -63,32.3 -1115.6,-655.3 -1450.4,-976.1 -334.7,-320.7 -384.8,-372.2 -384.8,-372.2 0,0 332.4,-409.9 602.6,-728.3 l 864.6,-19.5 c 187.7,219.4 400.5,457.7 536.9,577.8 291.4,256.4 567.1,514.6 567.1,514.6"
         style="fill:#dbe5eb;fill-opacity:1;fill-rule:nonzero;stroke:none"
         id="path98" />
      <path
         d="m 20039.1,10249.6 c -6.9,0 -13.7,2.8 -18.7,8.4 l -451.2,509.4 c -9.1,10.3 -8.2,26.1 2.2,35.3 10.3,9.2 26.1,8.2 35.3,-2.1 l 451.1,-509.4 c 9.2,-10.4 8.2,-26.2 -2.1,-35.3 -4.8,-4.3 -10.7,-6.3 -16.6,-6.3"
         style="fill:#3e6bab;fill-opacity:1;fill-rule:nonzero;stroke:none"
         id="path100" />
      <path
         d="m 20118.4,10307.4 c -6.9,0 -13.9,2.9 -18.8,8.6 l -433.5,498 c -9,10.4 -7.9,26.2 2.5,35.2 10.4,9.1 26.2,8 35.3,-2.4 l 433.4,-497.9 c 9,-10.5 8,-26.3 -2.5,-35.3 -4.7,-4.2 -10.5,-6.2 -16.4,-6.2"
         style="fill:#3e6bab;fill-opacity:1;fill-rule:nonzero;stroke:none"
         id="path102" />
      <path
         d="m 20425.5,10562.1 c -6.9,0 -13.7,2.8 -18.7,8.4 l -408.7,458.2 c -9.2,10.3 -8.3,26.1 2,35.3 10.3,9.2 26.1,8.3 35.3,-2 l 408.7,-458.2 c 9.2,-10.3 8.3,-26.1 -2,-35.3 -4.7,-4.3 -10.7,-6.4 -16.6,-6.4"
         style="fill:#3e6bab;fill-opacity:1;fill-rule:nonzero;stroke:none"
         id="path104" />
      <path
         d="m 20469.8,10630.7 c -6.9,0 -13.8,2.9 -18.7,8.4 l -407.8,459.7 c -9.2,10.4 -8.2,26.2 2.1,35.3 10.3,9.2 26.1,8.2 35.3,-2.1 l 407.8,-459.7 c 9.1,-10.3 8.2,-26.1 -2.2,-35.3 -4.7,-4.2 -10.6,-6.3 -16.5,-6.3"
         style="fill:#3e6bab;fill-opacity:1;fill-rule:nonzero;stroke:none"
         id="path106" />
      <path
         d="m 20759.7,10832.9 c -7.1,0 -14.1,2.9 -19,8.7 l -387.8,451.7 c -9,10.5 -7.8,26.3 2.7,35.2 10.5,9.1 26.2,7.8 35.2,-2.6 l 387.8,-451.7 c 9,-10.5 7.8,-26.3 -2.7,-35.3 -4.7,-4 -10.5,-6 -16.2,-6"
         style="fill:#3e6bab;fill-opacity:1;fill-rule:nonzero;stroke:none"
         id="path108" />
      <path
         d="m 20805.5,10903.9 c -10.1,0 -19.4,6.2 -23.2,15.7 -17.5,29.1 -227.8,271.8 -357.6,419.5 -9.1,10.3 -8.1,26.2 2.3,35.3 10.4,9.1 26.2,8.1 35.3,-2.3 362.1,-412.1 366,-430.2 367.7,-437.9 2.9,-13.5 -5.7,-26.8 -19.2,-29.7 -1.8,-0.4 -3.6,-0.6 -5.3,-0.6"
         style="fill:#3e6bab;fill-opacity:1;fill-rule:nonzero;stroke:none"
         id="path110" />
      <path
         d="m 19788.9,11065.3 c -3.2,0 -6.5,0.5 -9.7,1.6 -15.7,5.4 -24,22.5 -18.6,38.2 l 74.5,216 -105.7,-17.4 c -16.3,-2.7 -31.8,8.4 -34.5,24.7 -2.7,16.4 8.4,31.8 24.7,34.5 l 155.4,25.5 c 10.5,1.8 20.9,-2.1 27.8,-10.2 6.8,-8.1 8.8,-19.1 5.4,-29.1 l -90.9,-263.6 c -4.3,-12.4 -15.9,-20.2 -28.4,-20.2"
         style="fill:#d54a41;fill-opacity:1;fill-rule:nonzero;stroke:none"
         id="path112" />
      <path
         d="m 21547.5,11625.4 c -398.8,-159.7 -812.1,13.6 -598.8,33.6 213.3,20 386.7,166.7 386.7,166.7 l 212.1,-200.3"
         style="fill:#f09959;fill-opacity:1;fill-rule:nonzero;stroke:none"
         id="path114" />
      <path
         d="m 3869.73,3138.6 h 10225.5 V 17776.7 H 3869.73 Z"
         style="fill:#ffffff;fill-opacity:1;fill-rule:nonzero;stroke:none"
         id="path116" />
      <path
         d="M 3919.73,3188.6 H 14045.2 V 17726.7 H 3919.73 Z m 10225.47,-100 H 3819.73 V 17826.7 H 14145.2 V 3088.6"
         style="fill:#63acc2;fill-opacity:1;fill-rule:nonzero;stroke:none"
         id="path118" />
      <path
         d="M 13063.2,13863.8 H 6771.9 c -67.28,0 -122.32,55 -122.32,122.3 v 16.4 c 0,67.3 55.04,122.3 122.32,122.3 h 6291.3 c 67.3,0 122.4,-55 122.4,-122.3 v -16.4 c 0,-67.3 -55.1,-122.3 -122.4,-122.3"
         style="fill:#bbd9ff;fill-opacity:1;fill-rule:nonzero;stroke:none"
         id="path120" />
      <path
         d="M 13063.2,13396 H 6771.9 c -67.28,0 -122.32,55.1 -122.32,122.3 v 16.4 c 0,67.3 55.04,122.3 122.32,122.3 h 6291.3 c 67.3,0 122.4,-55 122.4,-122.3 v -16.4 c 0,-67.2 -55.1,-122.3 -122.4,-122.3"
         style="fill:#bbd9ff;fill-opacity:1;fill-rule:nonzero;stroke:none"
         id="path122" />
      <path
         d="M 13063.2,12043.4 H 6771.9 c -67.28,0 -122.32,55 -122.32,122.3 v 16.4 c 0,67.3 55.04,122.3 122.32,122.3 h 6291.3 c 67.3,0 122.4,-55 122.4,-122.3 v -16.4 c 0,-67.3 -55.1,-122.3 -122.4,-122.3"
         style="fill:#bbd9ff;fill-opacity:1;fill-rule:nonzero;stroke:none"
         id="path124" />
      <path
         d="M 13063.2,11575.6 H 6771.9 c -67.28,0 -122.32,55.1 -122.32,122.4 v 16.3 c 0,67.3 55.04,122.4 122.32,122.4 h 6291.3 c 67.3,0 122.4,-55.1 122.4,-122.4 v -16.3 c 0,-67.3 -55.1,-122.4 -122.4,-122.4"
         style="fill:#bbd9ff;fill-opacity:1;fill-rule:nonzero;stroke:none"
         id="path126" />
      <path
         d="M 13063.2,9900.7 H 6771.9 c -67.28,0 -122.32,55 -122.32,122.3 v 16.4 c 0,67.3 55.04,122.3 122.32,122.3 h 6291.3 c 67.3,0 122.4,-55 122.4,-122.3 v -16.4 c 0,-67.3 -55.1,-122.3 -122.4,-122.3"
         style="fill:#bbd9ff;fill-opacity:1;fill-rule:nonzero;stroke:none"
         id="path128" />
      <path
         d="M 13063.2,9432.9 H 6771.9 c -67.28,0 -122.32,55.1 -122.32,122.4 v 16.3 c 0,67.3 55.04,122.4 122.32,122.4 h 6291.3 c 67.3,0 122.4,-55.1 122.4,-122.4 v -16.3 c 0,-67.3 -55.1,-122.4 -122.4,-122.4"
         style="fill:#bbd9ff;fill-opacity:1;fill-rule:nonzero;stroke:none"
         id="path130" />
      <path
         d="M 13063.2,8227.6 H 6771.9 c -67.28,0 -122.32,55 -122.32,122.3 v 16.4 c 0,67.2 55.04,122.3 122.32,122.3 h 6291.3 c 67.3,0 122.4,-55.1 122.4,-122.3 v -16.4 c 0,-67.3 -55.1,-122.3 -122.4,-122.3"
         style="fill:#bbd9ff;fill-opacity:1;fill-rule:nonzero;stroke:none"
         id="path132" />
      <path
         d="M 13063.2,7759.8 H 6771.9 c -67.28,0 -122.32,55 -122.32,122.3 v 16.4 c 0,67.3 55.04,122.3 122.32,122.3 h 6291.3 c 67.3,0 122.4,-55 122.4,-122.3 v -16.4 c 0,-67.3 -55.1,-122.3 -122.4,-122.3"
         style="fill:#bbd9ff;fill-opacity:1;fill-rule:nonzero;stroke:none"
         id="path134" />
      <path
         d="m 5431.17,13247.2 h -417.13 c -167.97,0 -304.63,136.7 -304.63,304.6 v 417.2 c 0,167.9 136.66,304.6 304.63,304.6 h 417.13 c 167.97,0 304.63,-136.7 304.63,-304.6 v -417.2 c 0,-167.9 -136.66,-304.6 -304.63,-304.6 m -417.13,886.4 c -90.78,0 -164.64,-73.8 -164.64,-164.6 v -417.2 c 0,-90.7 73.86,-164.6 164.64,-164.6 h 417.13 c 90.78,0 164.63,73.9 164.63,164.6 v 417.2 c 0,90.8 -73.85,164.6 -164.63,164.6 h -417.13"
         style="fill:#b1d3ff;fill-opacity:1;fill-rule:nonzero;stroke:none"
         id="path136" />
      <path
         d="m 5431.17,11474.4 h -417.13 c -167.97,0 -304.63,136.7 -304.63,304.7 v 417.1 c 0,168 136.66,304.6 304.63,304.6 h 417.13 c 167.97,0 304.63,-136.6 304.63,-304.6 v -417.1 c 0,-168 -136.66,-304.7 -304.63,-304.7 m -417.13,886.4 c -90.78,0 -164.64,-73.8 -164.64,-164.6 v -417.1 c 0,-90.8 73.86,-164.7 164.64,-164.7 h 417.13 c 90.78,0 164.63,73.9 164.63,164.7 v 417.1 c 0,90.8 -73.85,164.6 -164.63,164.6 h -417.13"
         style="fill:#b1d3ff;fill-opacity:1;fill-rule:nonzero;stroke:none"
         id="path138" />
      <path
         d="m 5248.67,11719.1 c -0.96,0 -1.93,0 -2.9,0 -17.63,0.9 -33.98,9.4 -44.72,23.5 l -299.8,391 c -20.16,26.3 -15.19,64 11.11,84.1 26.3,20.2 63.96,15.2 84.12,-11.1 l 256.68,-334.8 681.62,730.3 c 22.62,24.2 60.59,25.5 84.8,2.9 24.23,-22.6 25.54,-60.6 2.93,-84.8 l -729.97,-782.1 c -11.38,-12.2 -27.28,-19 -43.87,-19"
         style="fill:#f37168;fill-opacity:1;fill-rule:nonzero;stroke:none"
         id="path140" />
      <path
         d="m 5014.04,10268.9 c -96.29,0 -174.63,-78.3 -174.63,-174.6 v -417.1 c 0,-96.3 78.34,-174.6 174.63,-174.6 h 417.13 c 96.29,0 174.63,78.3 174.63,174.6 v 417.1 c 0,96.3 -78.34,174.6 -174.63,174.6 z m 417.13,-886.3 h -417.13 c -162.46,0 -294.63,132.1 -294.63,294.6 v 417.1 c 0,162.5 132.17,294.6 294.63,294.6 h 417.13 c 162.46,0 294.63,-132.1 294.63,-294.6 v -417.1 c 0,-162.5 -132.17,-294.6 -294.63,-294.6"
         style="fill:#9ec8ff;fill-opacity:1;fill-rule:nonzero;stroke:none"
         id="path142" />
      <path
         d="m 5431.17,7599.8 h -417.13 c -167.97,0 -304.63,136.6 -304.63,304.6 v 417.1 c 0,168 136.66,304.7 304.63,304.7 h 417.13 c 167.97,0 304.63,-136.7 304.63,-304.7 v -417.1 c 0,-168 -136.66,-304.6 -304.63,-304.6 m -417.13,886.4 c -90.78,0 -164.64,-73.9 -164.64,-164.7 v -417.1 c 0,-90.8 73.86,-164.6 164.64,-164.6 h 417.13 c 90.78,0 164.63,73.8 164.63,164.6 v 417.1 c 0,90.8 -73.85,164.7 -164.63,164.7 h -417.13"
         style="fill:#b1d3ff;fill-opacity:1;fill-rule:nonzero;stroke:none"
         id="path144" />
      <path
         d="m 7221.9,15484.7 h -264.37 l -499.01,1156.6 h 289.16 l 351.95,-826.2 356.91,826.2 h 266.03 L 7221.9,15484.7"
         style="fill:#92c5d4;fill-opacity:1;fill-rule:nonzero;stroke:none"
         id="path146" />
      <path
         d="m 8447.94,15464.8 c -120.08,0 -228.31,25.9 -324.69,77.7 -96.4,51.8 -171.84,123.1 -226.37,214 -54.53,90.9 -81.8,193 -81.8,306.5 0,113.4 27.27,215.6 81.8,306.5 54.53,90.9 129.97,162.2 226.37,214 96.38,51.7 204.61,77.6 324.69,77.6 120.05,0 228.02,-25.9 323.85,-77.6 95.85,-51.8 171.29,-123.1 226.38,-214 55.07,-90.9 82.62,-193.1 82.62,-306.5 0,-113.5 -27.55,-215.6 -82.62,-306.5 -55.09,-90.9 -130.53,-162.2 -226.38,-214 -95.83,-51.8 -203.8,-77.7 -323.85,-77.7 m 0,968.3 c -68.31,0 -129.99,-15.7 -185.07,-47.1 -55.09,-31.4 -98.31,-75.2 -129.7,-131.3 -31.41,-56.2 -47.1,-120.1 -47.1,-191.7 0,-71.6 15.69,-135.5 47.1,-191.7 31.39,-56.2 74.61,-100 129.7,-131.4 55.08,-31.3 116.76,-47 185.07,-47 68.29,0 129.97,15.7 185.06,47 55.07,31.4 98.31,75.2 129.72,131.4 31.39,56.2 47.08,120.1 47.08,191.7 0,71.6 -15.69,135.5 -47.08,191.7 -31.41,56.1 -74.65,99.9 -129.72,131.3 -55.09,31.4 -116.77,47.1 -185.06,47.1"
         style="fill:#92c5d4;fill-opacity:1;fill-rule:nonzero;stroke:none"
         id="path148" />
      <path
         d="m 9855.74,15484.7 h -267.67 v 938.5 h -370.13 v 218.1 h 1007.96 v -218.1 h -370.16 v -938.5"
         style="fill:#92c5d4;fill-opacity:1;fill-rule:nonzero;stroke:none"
         id="path150" />
      <path
         d="m 11347.8,15484.7 h -895.6 v 1156.6 h 874.1 v -214.8 h -608 v -251.2 h 537 v -208.1 h -537 v -267.7 h 629.5 v -214.8"
         style="fill:#92c5d4;fill-opacity:1;fill-rule:nonzero;stroke:none"
         id="path152" />
      <path
         d="m 12840,3427.8 c 0,0 81.3,-313.9 357.8,-393.2 276.6,-79.3 546.2,-233.2 157.6,-237.9 -426.2,-5.2 -670.5,14.9 -847.7,44.6 -177.1,29.8 -61.1,342 -32.9,490.7 28.1,148.7 365.2,95.8 365.2,95.8"
         style="fill:#0f2d5c;fill-opacity:1;fill-rule:nonzero;stroke:none"
         id="path154" />
      <path
         d="m 10585.8,3682.9 c 0,0 -59.2,-627 91.6,-680.8 150.7,-53.9 323,-183.1 107.7,-183.1 -215.4,0 -481.9,-50.9 -551.6,183.1 -85,285.3 -277.28,333.5 -208.7,478.7 68.5,145.3 275.7,415.1 275.7,415.1 l 285.3,-213"
         style="fill:#0f2d5c;fill-opacity:1;fill-rule:nonzero;stroke:none"
         id="path156" />
      <path
         d="m 13467.7,10223.5 -547.3,-6928.7 c 0,0 -284.4,-131.4 -489.3,-151.2 -205,-19.9 -628.8,3320.4 -592.9,3854.4 35.9,534.1 -370.4,2230.1 -276.2,2779.8 94.1,549.7 1905.7,445.7 1905.7,445.7"
         style="fill:#0e3a82;fill-opacity:1;fill-rule:nonzero;stroke:none"
         id="path158" />
      <path
         d="m 12372.5,10186.9 c 38.6,5.2 77.5,9.8 116.5,13.9 l 945.5,-365.9 -174.4,-2043.7 c -453.2,-995.9 -995.4,-1936 -1267.8,-2543.7 -124,722.7 -170.8,1502.1 -154.1,1750.5 17.3,257.2 -67.9,783.9 -150.5,1322.2 l 684.8,1866.7"
         style="fill:#0f2d5c;fill-opacity:1;fill-rule:nonzero;stroke:none"
         id="path160" />
      <path
         d="m 13197.8,9176.6 c -530.6,-2358.8 -2617.9,-5651 -2615.7,-5651 2.3,0 -390,67.8 -409.8,246.2 -19.8,178.4 223.9,2372.8 754.5,2889.3 530.6,516.4 566.9,2968.1 566.9,2968.1 l 1704.1,-452.6"
         style="fill:#0e3a82;fill-opacity:1;fill-rule:nonzero;stroke:none"
         id="path162" />
      <path
         d="m 11946.6,12674.1 c -596.8,-600.3 -979.7,-1632.6 -984.9,-1888 -5.2,-255.5 688.3,-711.3 688.3,-711.3 l 296.6,2599.3"
         style="fill:#368da8;fill-opacity:1;fill-rule:nonzero;stroke:none"
         id="path164" />
      <path
         d="m 12665.8,13978 -210.2,-1045.8 574.8,-618.8 76.5,1268.1 -441.1,396.5"
         style="fill:#f09959;fill-opacity:1;fill-rule:nonzero;stroke:none"
         id="path166" />
      <path
         d="m 12381.8,13189.5 c 0,0 -304.8,-107 -644.2,-968.6 -339.4,-861.5 -455.7,-3284.3 -455.7,-3284.3 0,0 652.1,-553.7 1585.6,-553.5 594.9,0.2 775.8,133.9 775.8,133.9 0,0 59.5,2300.9 0,3023.1 -59.4,722.2 -966.9,1667.5 -1261.5,1649.4"
         style="fill:#63acc2;fill-opacity:1;fill-rule:nonzero;stroke:none"
         id="path168" />
      <path
         d="m 13643.3,11540.1 c -59.4,722.2 -966.9,1667.5 -1261.5,1649.4 0,0 -126.4,-44.5 -307.1,-306.2 304.7,148.3 684.5,-110.2 1039.6,-947.3 177.6,-418.7 366.1,-1021.2 554.4,-1152.6 -2.6,299.7 -10,570.6 -25.4,756.7"
         style="fill:#368da8;fill-opacity:1;fill-rule:nonzero;stroke:none"
         id="path170" />
      <path
         d="m 12886.5,13097.8 c -170.7,199 -234.1,502.9 -257.6,696.5 l 33.2,165.3 42.8,-16.7 402,-361.4 -39.3,-652.4 c -56.1,40 -117.3,94.5 -181.1,168.7"
         style="fill:#e38540;fill-opacity:1;fill-rule:nonzero;stroke:none"
         id="path172" />
      <path
         d="m 12797.1,13747.5 c 66,-311.2 352.6,-483.2 590.6,-432.8 237.9,50.5 289.9,352 224,663.3 -66,311.2 -265.4,474.9 -503.3,424.4 -237.9,-50.4 -377.3,-343.6 -311.3,-654.9"
         style="fill:#f09959;fill-opacity:1;fill-rule:nonzero;stroke:none"
         id="path174" />
      <path
         d="m 12473.2,13455.1 -202.6,-342.1 1073.5,-802.6 c 0,0 -80.8,372 -102.5,508.8 -21.6,136.9 -751.4,664.7 -768.4,635.9"
         style="fill:#63acc2;fill-opacity:1;fill-rule:nonzero;stroke:none"
         id="path176" />
      <path
         d="m 13667.3,14613.8 c 400.8,-126 73.1,-631.2 -55.6,-635.8 -128.8,-4.7 -175.8,115.3 -281.6,87.7 -105.8,-27.7 -205.6,160.3 -270.3,119.2 -64.6,-41.1 -23.5,-423.1 0,-487.7 23.5,-64.7 -82.2,-70.5 -82.2,-70.5 0,0 -43.1,270.3 -109.7,252.6 -66.6,-17.6 -116,-205.6 -211.8,-252.6 -95.7,-47 -95.7,-47 -95.7,-47 0,0 -58.8,407.9 -146.9,486 -88.2,78.1 -32.9,348.3 92.2,401.2 125.2,52.9 155.4,293.8 328.3,311.4 172.9,17.7 314,-99.9 543.1,-70.5 229.2,29.4 178,-58.7 290.2,-94"
         style="fill:#3a384d;fill-opacity:1;fill-rule:nonzero;stroke:none"
         id="path178" />
      <path
         d="m 12652.1,13813.5 c 37.1,-87.3 119.6,-135.7 184.3,-108.2 64.7,27.5 87.1,120.5 50,207.8 -37.1,87.3 -119.6,135.7 -184.3,108.3 -64.7,-27.5 -87.1,-120.6 -50,-207.9"
         style="fill:#f09959;fill-opacity:1;fill-rule:nonzero;stroke:none"
         id="path180" />
      <path
         d="m 12162.5,12549.6 c 0,0 1106.1,-1230.2 1504.3,-1610.7 5.4,-354.3 2.7,-767.1 -2.5,-1134 -215.8,106.2 -815.3,416.6 -1156.6,745.7 -421.4,406.4 -609.4,1338.2 -345.2,1999"
         style="fill:#368da8;fill-opacity:1;fill-rule:nonzero;stroke:none"
         id="path182" />
      <path
         d="m 15414.5,10929.5 c 73,454.2 897.3,1776.3 1208.6,1928.9 171.7,84.1 1721.3,-177 1721.3,-177 0,0 -1757.9,-1526 -1983.8,-2344 -201.8,-730.7 -177,-1007.3 -177,-1007.3 l -710.1,519 c 0,0 -168.9,396.8 -59,1080.4"
         style="fill:#dbe5eb;fill-opacity:1;fill-rule:nonzero;stroke:none"
         id="path184" />
      <path
         d="m 15219.3,10939.5 c 0,0 264.6,327.6 370.1,296.1 105.5,-31.6 145.4,-36.7 237.9,-31.6 92.5,5.1 99.1,-128.6 -33.1,-369 -132.1,-240.4 -489,-288.7 -574.9,-284.4 -85.9,4.3 0,388.9 0,388.9"
         style="fill:#f09959;fill-opacity:1;fill-rule:nonzero;stroke:none"
         id="path186" />
      <path
         d="m 12286,12819.2 c -427.8,-113.7 -288.6,-1198.2 -47.6,-1645.9 173.3,-321.8 752.1,-649.9 1105.7,-741.9 353.6,-92.1 1887.4,99.2 1887.4,99.2 0,0 56.4,505.6 -50.4,505.6 -106.7,0 -1373.1,29.3 -1713.4,336.9 -340.3,307.6 -665.1,1583.5 -1181.7,1446.1"
         style="fill:#63acc2;fill-opacity:1;fill-rule:nonzero;stroke:none"
         id="path188" />
      <path
         d="m 15473.5,10947.8 c -113.9,73.3 149.8,493.8 149.8,493.8 h 303.9 c 0,0 -97.7,-115.1 -241.1,-231.2 -143.4,-116.1 -212.6,-262.6 -212.6,-262.6"
         style="fill:#dbe5eb;fill-opacity:1;fill-rule:nonzero;stroke:none"
         id="path190" />
      <path
         d="m 17584.5,12259.6 c -1.6,0 -3.1,0.1 -4.7,0.4 l -723.6,137.4 c -13.5,2.6 -22.4,15.6 -19.9,29.2 2.6,13.6 15.8,22.5 29.2,19.9 l 723.6,-137.3 c 13.6,-2.6 22.5,-15.7 19.9,-29.3 -2.2,-12 -12.7,-20.3 -24.5,-20.3"
         style="fill:#3e6bab;fill-opacity:1;fill-rule:nonzero;stroke:none"
         id="path192" />
      <path
         d="m 17222.7,11865.9 c -2.9,0 -5.8,0.5 -8.7,1.5 l -572.1,210.6 c -12.9,4.8 -19.6,19.2 -14.8,32.1 4.8,13 19.2,19.7 32.1,14.8 l 572.1,-210.5 c 13,-4.8 19.6,-19.2 14.8,-32.1 -3.7,-10.1 -13.2,-16.4 -23.4,-16.4"
         style="fill:#3e6bab;fill-opacity:1;fill-rule:nonzero;stroke:none"
         id="path194" />
      <path
         d="m 17117.5,11756 c -2.8,0 -5.7,0.5 -8.5,1.5 -174,63.3 -510.4,185.1 -538.8,193.6 -13.3,4 -20.8,17.9 -16.9,31.1 4,13.2 17.9,20.8 31.1,16.8 36.9,-11 521.1,-187 541.7,-194.5 12.9,-4.7 19.6,-19.1 14.9,-32 -3.7,-10.2 -13.3,-16.5 -23.5,-16.5"
         style="fill:#3e6bab;fill-opacity:1;fill-rule:nonzero;stroke:none"
         id="path196" />
      <path
         d="m 16705.5,11272.7 c -3.3,0 -6.6,0.6 -9.8,2 -179.4,76.1 -457.8,191.6 -489.5,198 -13.6,2.7 -22.4,15.9 -19.6,29.4 2.7,13.5 15.9,22.3 29.4,19.6 46.9,-9.4 453.1,-181.4 499.3,-201 12.7,-5.4 18.6,-20.1 13.2,-32.8 -4,-9.5 -13.3,-15.2 -23,-15.2"
         style="fill:#3e6bab;fill-opacity:1;fill-rule:nonzero;stroke:none"
         id="path198" />
      <path
         d="m 16650.5,11169.7 c -3.2,0 -6.4,0.6 -9.6,1.9 l -485.3,202.8 c -12.7,5.3 -18.7,19.9 -13.4,32.7 5.3,12.7 20,18.7 32.7,13.4 l 485.3,-202.7 c 12.7,-5.4 18.7,-20 13.4,-32.7 -4,-9.6 -13.3,-15.4 -23.1,-15.4"
         style="fill:#3e6bab;fill-opacity:1;fill-rule:nonzero;stroke:none"
         id="path200" />
      <path
         d="m 17697.4,12378.6 c -1.5,0 -3.1,0.2 -4.6,0.5 l -760.8,143.4 c -13.6,2.6 -22.5,15.6 -19.9,29.2 2.5,13.6 15.6,22.5 29.2,19.9 l 760.7,-143.4 c 13.6,-2.6 22.5,-15.6 20,-29.2 -2.3,-12 -12.8,-20.4 -24.6,-20.4"
         style="fill:#3e6bab;fill-opacity:1;fill-rule:nonzero;stroke:none"
         id="path202" />
      <path
         d="m 16354.5,10846.5 c -3.2,0 -6.4,0.6 -9.5,1.9 l -347.9,143.5 c -12.8,5.2 -18.9,19.8 -13.6,32.6 5.2,12.8 19.8,18.8 32.6,13.6 l 347.9,-143.5 c 12.8,-5.2 18.9,-19.8 13.6,-32.6 -4,-9.7 -13.3,-15.5 -23.1,-15.5"
         style="fill:#3e6bab;fill-opacity:1;fill-rule:nonzero;stroke:none"
         id="path204" />
      <path
         d="m 16287.3,10697 c -3.5,0 -7,0.7 -10.4,2.3 l -323.5,149.5 c -12.6,5.8 -18,20.7 -12.2,33.2 5.7,12.5 20.6,18.1 33.1,12.2 l 323.6,-149.5 c 12.5,-5.8 17.9,-20.7 12.2,-33.2 -4.3,-9.2 -13.3,-14.5 -22.8,-14.5"
         style="fill:#3e6bab;fill-opacity:1;fill-rule:nonzero;stroke:none"
         id="path206" />
      <path
         d="m 16107.3,10135.4 c -3.4,0 -6.9,0.7 -10.2,2.2 l -442.6,198.4 c -12.6,5.6 -18.2,20.4 -12.6,33 5.7,12.6 20.5,18.2 33.1,12.6 l 442.5,-198.4 c 12.6,-5.6 18.3,-20.4 12.6,-33 -4.2,-9.3 -13.3,-14.8 -22.8,-14.8"
         style="fill:#3e6bab;fill-opacity:1;fill-rule:nonzero;stroke:none"
         id="path208" />
      <path
         d="m 16040.1,10001.1 c -3.4,0 -6.8,0.7 -10.1,2.2 -183.3,81.1 -403.7,179.1 -412.7,185.1 -11.5,7.7 -14.6,23.2 -6.9,34.7 7.4,11.1 22.2,14.4 33.6,7.6 16.6,-8.7 251.6,-113.2 406.3,-181.7 12.6,-5.6 18.3,-20.4 12.7,-33 -4.1,-9.3 -13.3,-14.9 -22.9,-14.9"
         style="fill:#3e6bab;fill-opacity:1;fill-rule:nonzero;stroke:none"
         id="path210" />
      <path
         d="m 16180.5,12007.4 c -6.2,0 -12.4,1.9 -17.6,5.7 -9,6.6 -13.7,17.7 -12,28.7 l 30.5,204.5 c 2.4,16.4 17.8,27.7 34.1,25.2 16.4,-2.4 27.7,-17.7 25.2,-34.1 l -22,-147.6 397.1,197.3 c 14.9,7.3 32.9,1.3 40.3,-13.6 7.3,-14.8 1.3,-32.8 -13.6,-40.2 l -448.6,-222.8 c -4.2,-2.1 -8.8,-3.1 -13.4,-3.1"
         style="fill:#d54a41;fill-opacity:1;fill-rule:nonzero;stroke:none"
         id="path212" />
    </g>
  </g>
</svg>
